<svg xmlns="http://www.w3.org/2000/svg" width="29.648" height="21.563" viewBox="0 0 29.648 21.563">
  <path id="Path_5" data-name="Path 5" d="M59.756,335.186H81.319a4.048,4.048,0,0,0,4.043-4.043V317.666a4.049,4.049,0,0,0-4.043-4.043H59.756a4.049,4.049,0,0,0-4.043,4.043v13.476A4.047,4.047,0,0,0,59.756,335.186Zm22.91-4.6L76.488,324.4l6.178-6.178Zm-14.988-3.086a4.047,4.047,0,0,0,5.718,0l1.186-1.186,6.182,6.182H60.31l6.182-6.182Zm3.812-1.906a1.349,1.349,0,0,1-1.906,0l-9.27-9.27H80.76Zm-6.9-1.186-6.179,6.179V318.225Z" transform="translate(-55.713 -313.623)" fill="#636363"/>
</svg>
