<svg xmlns="http://www.w3.org/2000/svg" width="30" height="30" viewBox="0 0 30 30">
  <g id="Group_24" data-name="Group 24" transform="translate(-3121 253)">
    <g id="Group_23" data-name="Group 23" transform="translate(3065.044 -440.396)">
      <path id="Path_2" data-name="Path 2" d="M77.049,195.243a4.665,4.665,0,1,0,4.665,4.665,4.67,4.67,0,0,0-4.665-4.665Zm0,7.026a2.361,2.361,0,1,1,2.361-2.361,2.363,2.363,0,0,1-2.361,2.361Zm0,0" transform="translate(-3.711 -2.548)" fill="#636363"/>
      <path id="Path_3" data-name="Path 3" d="M77.582,208.645c.338-.36.685-.742,1.032-1.143,3.11-3.59,4.687-6.815,4.687-9.586v-.556a9.963,9.963,0,1,0-19.926,0v.556c0,2.771,1.577,6,4.687,9.586.347.4.693.783,1.032,1.143-3.222.352-8.137,1.328-8.137,4.007,0,1.429,1.392,2.536,4.136,3.288a32.539,32.539,0,0,0,8.245.943,32.543,32.543,0,0,0,8.245-.943c2.745-.752,4.136-1.858,4.136-3.288,0-2.677-4.9-3.654-8.138-4.007Zm-11.9-10.73v-.556a7.66,7.66,0,1,1,15.319,0v.556c0,2.164-1.419,4.949-4.1,8.052a39.852,39.852,0,0,1-3.558,3.6,39.958,39.958,0,0,1-3.535-3.57c-2.7-3.114-4.124-5.908-4.124-8.078Zm14.8,15.931a35.131,35.131,0,0,1-14.274,0,6.291,6.291,0,0,1-2.879-1.194,5.241,5.241,0,0,1,2.2-1.015,26.861,26.861,0,0,1,5.73-.857c.786.726,1.317,1.161,1.362,1.2l.727.591.727-.591c.045-.036.575-.471,1.362-1.2a26.948,26.948,0,0,1,5.713.852,5.258,5.258,0,0,1,2.215,1.02,6.291,6.291,0,0,1-2.879,1.194Zm0,0" fill="#636363"/>
    </g>
    <rect id="Rectangle_33" data-name="Rectangle 33" width="30" height="30" transform="translate(3121 -253)" fill="none"/>
  </g>
</svg>
